<?xml version="1.0" encoding="UTF-8" standalone="no"?>
<!DOCTYPE svg PUBLIC "-//W3C//DTD SVG 1.1//EN" "http://www.w3.org/Graphics/SVG/1.1/DTD/svg11.dtd">
<svg xmlns="http://www.w3.org/2000/svg" version="1.1" viewBox="0.00 0.00 500.00 500.00">
<g stroke-width="2.00" fill="none" stroke-linecap="butt">
<path stroke="#f8cc9d" vector-effect="non-scaling-stroke" d="
  M 38.18 412.59
  Q 38.32 412.43 38.42 412.25
  Q 145.01 229.88 250.62 49.14
  Q 252.62 45.73 249.14 47.61
  Q 246.48 49.06 243.27 50.56
  Q 151.58 93.28 60.28 135.81
  A 5.35 5.35 0.0 0 0 57.48 138.92
  L 33.79 207.95
  A 12.50 12.39 54.8 0 0 33.11 212.01
  L 33.11 414.27
  Q 33.11 414.73 33.55 414.87
  Q 36.78 415.91 37.82 413.17
  Q 37.95 412.85 38.18 412.59"
/>
<path stroke="#808080" vector-effect="non-scaling-stroke" d="
  M 464.58 404.86
  L 252.65 83.44
  Q 252.07 82.57 251.09 82.93
  Q 250.47 83.16 249.84 84.39
  Q 238.31 106.71 226.53 129.40
  A 1.76 1.73 42.4 0 0 226.62 131.16
  L 412.27 414.18
  A 1.70 1.70 0.0 0 0 413.71 414.95
  L 467.01 414.94
  Q 467.72 414.94 467.72 414.24
  L 467.71 405.95
  Q 467.71 405.19 466.95 405.24
  L 465.56 405.35
  Q 464.93 405.40 464.58 404.86"
/>
<path stroke="#808080" vector-effect="non-scaling-stroke" d="
  M 204.4686 280.2762
  A 1.36 1.36 0.0 0 0 203.1063 278.9186
  L 155.5664 279.0015
  A 1.36 1.36 0.0 0 0 154.2087 280.3639
  L 154.2914 327.7038
  A 1.36 1.36 0.0 0 0 155.6537 329.0614
  L 203.1936 328.9785
  A 1.36 1.36 0.0 0 0 204.5513 327.6161
  L 204.4686 280.2762"
/>
<path stroke="#808080" vector-effect="non-scaling-stroke" d="
  M 268.72 280.18
  A 1.22 1.22 0.0 0 0 267.50 278.96
  L 219.90 278.96
  A 1.22 1.22 0.0 0 0 218.68 280.18
  L 218.68 327.76
  A 1.22 1.22 0.0 0 0 219.90 328.98
  L 267.50 328.98
  A 1.22 1.22 0.0 0 0 268.72 327.76
  L 268.72 280.18"
/>
<path stroke="#808080" vector-effect="non-scaling-stroke" d="
  M 204.49 344.42
  A 1.51 1.51 0.0 0 0 202.98 342.91
  L 155.76 342.91
  A 1.51 1.51 0.0 0 0 154.25 344.42
  L 154.25 391.90
  A 1.51 1.51 0.0 0 0 155.76 393.41
  L 202.98 393.41
  A 1.51 1.51 0.0 0 0 204.49 391.90
  L 204.49 344.42"
/>
<path stroke="#808080" vector-effect="non-scaling-stroke" d="
  M 268.72 344.25
  A 1.34 1.34 0.0 0 0 267.38 342.91
  L 220.02 342.91
  A 1.34 1.34 0.0 0 0 218.68 344.25
  L 218.68 392.07
  A 1.34 1.34 0.0 0 0 220.02 393.41
  L 267.38 393.41
  A 1.34 1.34 0.0 0 0 268.72 392.07
  L 268.72 344.25"
/>
</g>
<path fill="#ffffff" d="
  M 53.64 0.00
  L 446.49 0.00
  C 475.89 2.90 497.46 23.96 500.00 53.38
  L 500.00 446.73
  C 497.14 475.96 475.80 497.50 446.61 500.00
  L 53.27 500.00
  C 24.13 497.42 2.65 475.74 0.00 446.61
  L 0.00 53.51
  C 2.39 24.17 24.34 2.57 53.64 0.00
  Z
  M 38.18 412.59
  Q 38.32 412.43 38.42 412.25
  Q 145.01 229.88 250.62 49.14
  Q 252.62 45.73 249.14 47.61
  Q 246.48 49.06 243.27 50.56
  Q 151.58 93.28 60.28 135.81
  A 5.35 5.35 0.0 0 0 57.48 138.92
  L 33.79 207.95
  A 12.50 12.39 54.8 0 0 33.11 212.01
  L 33.11 414.27
  Q 33.11 414.73 33.55 414.87
  Q 36.78 415.91 37.82 413.17
  Q 37.95 412.85 38.18 412.59
  Z
  M 464.58 404.86
  L 252.65 83.44
  Q 252.07 82.57 251.09 82.93
  Q 250.47 83.16 249.84 84.39
  Q 238.31 106.71 226.53 129.40
  A 1.76 1.73 42.4 0 0 226.62 131.16
  L 412.27 414.18
  A 1.70 1.70 0.0 0 0 413.71 414.95
  L 467.01 414.94
  Q 467.72 414.94 467.72 414.24
  L 467.71 405.95
  Q 467.71 405.19 466.95 405.24
  L 465.56 405.35
  Q 464.93 405.40 464.58 404.86
  Z
  M 204.4686 280.2762
  A 1.36 1.36 0.0 0 0 203.1063 278.9186
  L 155.5664 279.0015
  A 1.36 1.36 0.0 0 0 154.2087 280.3639
  L 154.2914 327.7038
  A 1.36 1.36 0.0 0 0 155.6537 329.0614
  L 203.1936 328.9785
  A 1.36 1.36 0.0 0 0 204.5513 327.6161
  L 204.4686 280.2762
  Z
  M 268.72 280.18
  A 1.22 1.22 0.0 0 0 267.50 278.96
  L 219.90 278.96
  A 1.22 1.22 0.0 0 0 218.68 280.18
  L 218.68 327.76
  A 1.22 1.22 0.0 0 0 219.90 328.98
  L 267.50 328.98
  A 1.22 1.22 0.0 0 0 268.72 327.76
  L 268.72 280.18
  Z
  M 204.49 344.42
  A 1.51 1.51 0.0 0 0 202.98 342.91
  L 155.76 342.91
  A 1.51 1.51 0.0 0 0 154.25 344.42
  L 154.25 391.90
  A 1.51 1.51 0.0 0 0 155.76 393.41
  L 202.98 393.41
  A 1.51 1.51 0.0 0 0 204.49 391.90
  L 204.49 344.42
  Z
  M 268.72 344.25
  A 1.34 1.34 0.0 0 0 267.38 342.91
  L 220.02 342.91
  A 1.34 1.34 0.0 0 0 218.68 344.25
  L 218.68 392.07
  A 1.34 1.34 0.0 0 0 220.02 393.41
  L 267.38 393.41
  A 1.34 1.34 0.0 0 0 268.72 392.07
  L 268.72 344.25
  Z"
/>
<path fill="#f0993b" d="
  M 37.82 413.17
  Q 36.78 415.91 33.55 414.87
  Q 33.11 414.73 33.11 414.27
  L 33.11 212.01
  A 12.50 12.39 54.8 0 1 33.79 207.95
  L 57.48 138.92
  A 5.35 5.35 0.0 0 1 60.28 135.81
  Q 151.58 93.28 243.27 50.56
  Q 246.48 49.06 249.14 47.61
  Q 252.62 45.73 250.62 49.14
  Q 145.01 229.88 38.42 412.25
  Q 38.32 412.43 38.18 412.59
  Q 37.95 412.85 37.82 413.17
  Z"
/>
<path fill="#000000" d="
  M 465.56 405.35
  L 466.95 405.24
  Q 467.71 405.19 467.71 405.95
  L 467.72 414.24
  Q 467.72 414.94 467.01 414.94
  L 413.71 414.95
  A 1.70 1.70 0.0 0 1 412.27 414.18
  L 226.62 131.16
  A 1.76 1.73 42.4 0 1 226.53 129.40
  Q 238.31 106.71 249.84 84.39
  Q 250.47 83.16 251.09 82.93
  Q 252.07 82.57 252.65 83.44
  L 464.58 404.86
  Q 464.93 405.40 465.56 405.35
  Z"
/>
<rect fill="#000000" x="-25.13" y="-25.03" transform="translate(179.38,303.99) rotate(-0.1)" width="50.26" height="50.06" rx="1.36"/>
<rect fill="#000000" x="218.68" y="278.96" width="50.04" height="50.02" rx="1.22"/>
<rect fill="#000000" x="154.25" y="342.91" width="50.24" height="50.50" rx="1.51"/>
<rect fill="#000000" x="218.68" y="342.91" width="50.04" height="50.50" rx="1.34"/>
</svg>
