<?xml version="1.0" encoding="UTF-8" standalone="no"?>
<!DOCTYPE svg PUBLIC "-//W3C//DTD SVG 1.1//EN" "http://www.w3.org/Graphics/SVG/1.1/DTD/svg11.dtd">
<svg xmlns="http://www.w3.org/2000/svg" version="1.1" viewBox="0.00 0.00 1024.00 390.00">
<path fill="#f0993b" d="
  M 555.26 95.27
  A 0.89 0.89 0.0 0 0 556.99 95.56
  L 570.02 57.52
  A 2.25 2.23 -3.0 0 1 571.19 56.23
  L 672.74 8.91
  Q 673.43 8.59 673.05 9.24
  L 558.11 205.96
  Q 557.81 206.47 557.22 206.47
  L 410.52 206.47
  A 0.21 0.21 0.0 0 1 410.33 206.16
  Q 436.62 157.59 462.91 108.89
  C 464.03 106.81 464.24 106.05 466.51 104.99
  Q 494.28 92.02 522.07 79.14
  Q 522.50 78.94 522.50 78.47
  L 522.49 37.02
  Q 522.49 36.52 522.99 36.52
  L 554.77 36.52
  Q 555.26 36.52 555.26 37.02
  L 555.26 95.27
  Z"
/>
<path fill="#000000" d="
  M 32.48 207.29
  L 32.48 369.36
  A 0.62 0.62 0.0 0 0 33.10 369.98
  L 985.86 369.98
  A 0.62 0.62 0.0 0 0 986.48 369.36
  L 986.48 207.30
  A 0.62 0.62 0.0 0 0 985.86 206.68
  L 760.68 206.71
  A 0.62 0.62 0.0 0 1 760.17 206.43
  L 659.85 53.45
  A 0.62 0.62 0.0 0 1 659.82 52.83
  L 672.59 28.21
  A 0.62 0.62 0.0 0 1 673.66 28.15
  L 786.41 199.20
  A 0.62 0.62 0.0 0 0 786.92 199.48
  L 992.95 199.48
  A 0.62 0.62 0.0 0 1 993.57 200.10
  L 993.57 376.38
  A 0.62 0.62 0.0 0 1 992.95 377.00
  L 26.16 377.00
  A 0.62 0.62 0.0 0 1 25.54 376.38
  L 25.55 200.10
  A 0.62 0.62 0.0 0 1 26.17 199.48
  L 217.45 199.48
  A 0.62 0.62 0.0 0 0 217.91 199.27
  L 300.99 105.73
  A 0.62 0.62 0.0 0 1 302.02 105.88
  L 311.16 125.43
  A 0.62 0.62 0.0 0 1 311.06 126.11
  L 239.22 206.50
  A 0.62 0.62 0.0 0 1 238.76 206.71
  L 33.10 206.67
  A 0.62 0.62 0.0 0 0 32.48 207.29
  Z"
/>
<path fill="#f0993b" d="
  M 443.85 116.14
  L 395.10 206.31
  A 0.35 0.35 0.0 0 1 394.79 206.49
  L 354.94 206.47
  A 0.35 0.35 0.0 0 1 354.62 206.26
  L 311.79 106.32
  A 0.35 0.35 0.0 0 1 312.13 105.83
  L 443.57 115.62
  A 0.35 0.35 0.0 0 1 443.85 116.14
  Z"
/>
<rect fill="#000000" x="-13.35" y="-13.30" transform="translate(634.77,145.57) rotate(-0.1)" width="26.70" height="26.60" rx="0.75"/>
<rect fill="#000000" x="655.72" y="132.27" width="26.54" height="26.60" rx="0.70"/>
<rect fill="#000000" x="621.42" y="166.34" width="26.70" height="26.78" rx="0.85"/>
<rect fill="#000000" x="655.72" y="166.34" width="26.54" height="26.78" rx="0.76"/>
<rect fill="#000000" x="-6.71" y="-6.63" transform="translate(294.29,177.06) rotate(-0.1)" width="13.42" height="13.26" rx="0.75"/>
<rect fill="#000000" x="304.50" y="170.43" width="13.46" height="13.26" rx="0.75"/>
<rect fill="#000000" x="287.58" y="187.29" width="13.42" height="13.26" rx="0.77"/>
<rect fill="#000000" x="-6.73" y="-6.63" transform="translate(311.23,193.92) rotate(-0.1)" width="13.46" height="13.26" rx="0.76"/>
<path fill="#000000" d="
  M 453.44 248.19
  L 463.63 248.18
  A 0.37 0.37 0.0 0 1 464.00 248.55
  L 464.00 332.50
  A 0.37 0.37 0.0 0 1 463.35 332.74
  L 401.88 262.90
  A 0.37 0.37 0.0 0 1 401.79 262.66
  L 401.79 247.09
  A 0.37 0.37 0.0 0 1 402.44 246.85
  L 452.42 303.91
  A 0.37 0.37 0.0 0 0 453.07 303.67
  L 453.07 248.56
  A 0.37 0.37 0.0 0 1 453.44 248.19
  Z"
/>
<path fill="#f0993b" d="
  M 649.78 275.05
  Q 649.71 275.50 649.29 276.54
  Q 638.31 303.49 627.30 330.56
  A 0.92 0.91 -79.1 0 1 626.45 331.14
  L 616.42 331.17
  A 0.41 0.41 0.0 0 1 616.04 330.60
  L 650.84 247.27
  Q 651.14 246.56 651.43 247.27
  L 686.21 330.52
  Q 686.47 331.14 685.79 331.14
  L 676.65 331.16
  A 2.09 2.08 -11.2 0 1 674.70 329.86
  L 652.23 274.76
  A 1.28 1.28 0.0 0 0 649.78 275.05
  Z"
/>
<path fill="#f0993b" d="
  M 94.50 318.87
  C 108.44 324.11 114.82 312.97 114.80 301.01
  Q 114.76 274.43 114.74 247.88
  A 0.82 0.81 -90.0 0 1 115.55 247.06
  L 124.51 247.04
  A 0.77 0.77 0.0 0 1 125.28 247.81
  Q 125.28 274.80 125.27 301.75
  C 125.26 314.75 119.57 329.07 105.24 331.59
  C 97.47 332.95 90.29 330.71 84.74 325.14
  A 1.16 1.16 0.0 0 1 84.54 323.79
  L 89.26 314.75
  Q 89.49 314.30 89.79 314.71
  Q 92.17 318.00 94.50 318.87
  Z"
/>
<path fill="#f0993b" d="
  M 179.71 284.95
  A 0.90 0.89 41.9 0 0 179.80 286.57
  C 191.79 291.41 192.90 308.22 188.07 318.24
  Q 182.04 330.75 166.23 331.02
  Q 152.87 331.24 139.71 331.14
  A 0.89 0.89 0.0 0 1 138.82 330.25
  L 138.81 319.75
  Q 138.81 319.21 139.35 319.21
  Q 161.52 319.34 167.47 319.13
  C 176.95 318.79 181.99 310.59 179.81 301.71
  C 178.09 294.72 172.70 292.20 165.87 292.11
  Q 152.86 291.92 140.08 292.03
  A 1.26 1.26 0.0 0 1 138.81 290.77
  L 138.82 281.23
  A 1.24 1.23 -0.0 0 1 140.06 280.00
  Q 150.72 280.00 161.38 279.99
  C 168.75 279.98 175.70 279.33 176.54 271.00
  C 177.34 263.09 172.24 259.27 164.74 259.14
  Q 152.20 258.93 139.92 259.07
  A 1.10 1.10 0.0 0 1 138.81 257.97
  L 138.82 247.99
  A 0.82 0.82 0.0 0 1 139.60 247.17
  Q 150.48 246.62 161.16 247.18
  Q 171.64 247.72 176.41 250.10
  Q 184.39 254.08 186.56 263.30
  C 188.17 270.11 186.68 281.20 179.71 284.95
  Z"
/>
<path fill="#f0993b" d="
  M 197.06 252.86
  Q 195.73 250.38 194.44 247.78
  Q 194.12 247.13 194.85 247.12
  L 205.07 246.97
  Q 205.77 246.96 206.09 247.58
  Q 218.30 271.22 230.30 294.90
  Q 231.36 296.97 231.38 299.28
  Q 231.57 314.93 231.40 330.52
  Q 231.40 331.16 230.76 331.16
  L 221.76 331.16
  A 0.99 0.98 -0.0 0 1 220.77 330.18
  Q 220.75 314.66 220.78 298.86
  Q 220.78 296.73 219.77 294.87
  Q 208.39 273.86 197.06 252.86
  Z"
/>
<path fill="#f0993b" d="
  M 258.28 247.33
  L 235.26 290.10
  A 0.32 0.32 0.0 0 1 234.69 290.09
  L 229.43 280.01
  A 0.32 0.32 0.0 0 1 229.43 279.71
  L 246.46 247.31
  A 0.32 0.32 0.0 0 1 246.74 247.14
  L 257.99 246.86
  A 0.32 0.32 0.0 0 1 258.28 247.33
  Z"
/>
<path fill="#f0993b" d="
  M 903.56 248.42
  L 913.22 248.45
  A 0.32 0.32 0.0 0 1 913.54 248.77
  L 913.55 331.99
  A 0.32 0.32 0.0 0 1 912.99 332.20
  L 851.81 262.68
  A 0.32 0.32 0.0 0 1 851.73 262.47
  L 851.73 247.51
  A 0.32 0.32 0.0 0 1 852.29 247.30
  L 902.68 304.85
  A 0.32 0.32 0.0 0 0 903.24 304.64
  L 903.24 248.74
  A 0.32 0.32 0.0 0 1 903.56 248.42
  Z"
/>
<path fill="#000000" d="
  M 487.69 288.70
  C 487.44 303.32 495.89 317.86 511.43 319.89
  A 0.65 0.65 0.0 0 1 511.99 320.53
  L 512.00 331.22
  A 0.88 0.88 0.0 0 1 510.99 332.09
  C 486.09 328.21 472.69 303.58 477.73 279.94
  C 481.29 263.24 493.83 249.06 511.52 247.34
  Q 512.00 247.30 512.00 247.78
  L 512.00 258.75
  A 0.67 0.67 0.0 0 1 511.45 259.41
  C 496.95 261.78 487.94 274.42 487.69 288.70
  Z"
/>
<path fill="#000000" d="
  M 544.42 316.74
  C 538.99 324.12 528.33 331.89 518.37 331.89
  Q 517.74 331.89 517.74 331.26
  L 517.74 320.52
  A 0.55 0.55 0.0 0 1 518.19 319.98
  C 550.37 313.93 550.11 265.18 518.27 259.33
  A 0.65 0.64 -85.3 0 1 517.74 258.69
  L 517.74 247.81
  Q 517.74 247.27 518.29 247.34
  C 551.15 251.54 562.65 291.92 544.42 316.74
  Z"
/>
<path fill="#f0993b" d="
  M 796.71 259.14
  C 764.65 265.79 764.62 313.87 796.77 320.21
  Q 797.25 320.30 797.25 320.79
  L 797.25 331.22
  Q 797.25 331.86 796.63 331.77
  C 766.63 327.74 754.19 292.50 767.82 267.68
  C 773.76 256.84 784.19 249.03 796.72 247.54
  Q 797.25 247.48 797.25 248.02
  L 797.25 258.47
  Q 797.25 259.03 796.71 259.14
  Z"
/>
<path fill="#f0993b" d="
  M 827.73 292.51
  C 828.96 277.43 820.19 261.73 803.97 259.25
  Q 803.35 259.15 803.35 258.53
  L 803.41 247.99
  A 0.58 0.58 0.0 0 1 804.08 247.42
  Q 816.61 249.49 825.09 257.64
  C 841.73 273.60 842.78 301.90 827.51 319.14
  Q 818.95 328.81 804.90 331.98
  A 1.25 1.24 -6.1 0 1 803.38 330.76
  L 803.41 321.01
  Q 803.41 320.48 803.93 320.35
  Q 825.91 314.71 827.73 292.51
  Z"
/>
<path fill="#000000" d="
  M 298.00 303.21
  L 298.00 330.50
  A 0.76 0.75 -90.0 0 1 297.25 331.26
  L 287.82 331.25
  Q 287.13 331.25 287.13 330.57
  L 287.12 291.09
  A 0.51 0.50 -0.0 0 1 287.63 290.59
  Q 301.09 290.55 314.74 290.56
  C 332.08 290.57 333.13 260.62 314.48 260.32
  Q 301.08 260.11 287.65 260.03
  Q 287.11 260.02 287.11 259.48
  L 287.14 248.80
  Q 287.14 248.31 287.63 248.30
  Q 304.43 247.87 314.98 248.39
  C 334.21 249.34 341.97 266.75 337.67 283.72
  Q 334.44 296.46 322.49 301.15
  A 0.85 0.85 0.0 0 0 322.08 302.40
  L 340.24 330.58
  A 0.43 0.43 0.0 0 1 339.88 331.25
  L 328.80 331.26
  A 1.56 1.52 72.9 0 1 327.52 330.56
  L 309.73 303.02
  Q 309.47 302.62 309.00 302.62
  L 298.63 302.59
  A 0.63 0.62 0.0 0 0 298.00 303.21
  Z"
/>
<rect fill="#000000" x="347.80" y="248.18" width="42.60" height="11.90" rx="0.65"/>
<path fill="#000000" d="
  M 589.30 332.34
  L 556.15 248.81
  A 0.46 0.46 0.0 0 1 556.58 248.18
  L 567.34 248.18
  A 0.46 0.46 0.0 0 1 567.76 248.47
  L 595.26 319.08
  A 0.46 0.46 0.0 0 1 595.26 319.42
  L 590.16 332.34
  A 0.46 0.46 0.0 0 1 589.30 332.34
  Z"
/>
<path fill="#000000" d="
  M 592.87 296.82
  L 611.67 248.48
  A 0.47 0.47 0.0 0 1 612.11 248.18
  L 622.86 248.18
  A 0.47 0.47 0.0 0 1 623.29 248.82
  L 598.88 310.33
  A 0.47 0.47 0.0 0 1 598.01 310.33
  L 592.87 297.16
  A 0.47 0.47 0.0 0 1 592.87 296.82
  Z"
/>
<rect fill="#f0993b" x="738.88" y="248.43" width="10.50" height="82.72" rx="0.54"/>
<rect fill="#f0993b" x="679.74" y="248.45" width="49.40" height="11.28" rx="0.34"/>
<rect fill="#f0993b" x="699.33" y="266.74" width="10.22" height="64.42" rx="0.37"/>
<path fill="#000000" d="
  M 412.63 284.75
  L 412.61 330.85
  A 0.41 0.41 0.0 0 1 412.20 331.26
  L 402.20 331.25
  A 0.41 0.41 0.0 0 1 401.79 330.84
  L 401.79 273.45
  A 0.41 0.41 0.0 0 1 402.51 273.18
  L 412.53 284.47
  A 0.41 0.41 0.0 0 1 412.63 284.75
  Z"
/>
<path fill="#f0993b" d="
  M 862.20 284.85
  L 862.20 330.82
  A 0.33 0.33 0.0 0 1 861.87 331.15
  L 852.05 331.16
  A 0.33 0.33 0.0 0 1 851.72 330.83
  L 851.73 273.83
  A 0.33 0.33 0.0 0 1 852.31 273.61
  L 862.12 284.63
  A 0.33 0.33 0.0 0 1 862.20 284.85
  Z"
/>
<rect fill="#000000" x="347.79" y="283.88" width="37.42" height="11.76" rx="0.74"/>
<rect fill="#000000" x="347.79" y="319.12" width="42.60" height="12.14" rx="0.76"/>
</svg>
